<svg width="70" height="68" viewBox="0 0 70 68" fill="none" xmlns="http://www.w3.org/2000/svg">
<g filter="url(#filter0_d)">
<path d="M43.1889 10.3112H17.3464C13.7803 10.3112 10.8894 13.0976 10.8894 16.5349V41.4438C10.8894 44.8811 13.7803 47.6675 17.3464 47.6675H43.1889C46.755 47.6675 49.6459 44.8811 49.6459 41.4438V16.5349C49.6459 13.0976 46.755 10.3112 43.1889 10.3112Z" fill="#F2C94C"/>
</g>
<path d="M39.1525 25.8549C39.1525 21.2832 35.384 17.6259 30.6735 17.6259C25.963 17.6259 22.1946 21.2832 22.1946 25.8549C22.1946 28.6894 23.7019 31.2495 25.963 32.7124V34.9983C25.963 36.1869 26.7167 37.1927 27.8472 37.5584V37.7413C27.8472 39.2957 29.0719 40.4843 30.6735 40.4843C32.2751 40.4843 33.4998 39.2957 33.4998 37.7413V37.5584C34.6304 37.1927 35.384 36.1869 35.384 34.9983V32.7124C37.6451 31.2495 39.1525 28.6894 39.1525 25.8549ZM24.0788 25.8549C24.0788 22.289 26.9993 19.4545 30.6735 19.4545C34.3477 19.4545 37.2682 22.289 37.2682 25.8549C37.2682 29.0551 34.8188 31.7067 31.6156 32.1638V29.878L33.2172 28.3236C33.594 27.9579 33.594 27.4093 33.2172 27.0435C32.8404 26.6778 32.2751 26.6778 31.8982 27.0435L30.6735 28.2322L29.4488 27.0435C29.0719 26.6778 28.5067 26.6778 28.1298 27.0435C27.753 27.4093 27.753 27.9579 28.1298 28.3236L29.7314 29.878V32.1638C26.5283 31.7067 24.0788 29.0551 24.0788 25.8549ZM30.6735 38.6557C30.1083 38.6557 29.7314 38.2899 29.7314 37.7413H31.6156C31.6156 38.2899 31.2388 38.6557 30.6735 38.6557ZM33.4998 34.9983C33.4998 35.5469 33.123 35.9126 32.5577 35.9126H28.7893C28.224 35.9126 27.8472 35.5469 27.8472 34.9983V33.6268C28.6951 33.9011 29.6372 34.084 30.6735 34.084C31.7098 34.084 32.6519 33.9011 33.4998 33.6268V34.9983Z" fill="white"/>
<defs>
<filter id="filter0_d" x="0.889404" y="0.311157" width="68.7565" height="67.3564" filterUnits="userSpaceOnUse" color-interpolation-filters="sRGB">
<feFlood flood-opacity="0" result="BackgroundImageFix"/>
<feColorMatrix in="SourceAlpha" type="matrix" values="0 0 0 0 0 0 0 0 0 0 0 0 0 0 0 0 0 0 127 0"/>
<feOffset dx="5" dy="5"/>
<feGaussianBlur stdDeviation="7.5"/>
<feColorMatrix type="matrix" values="0 0 0 0 0 0 0 0 0 0 0 0 0 0 0 0 0 0 0.15 0"/>
<feBlend mode="normal" in2="BackgroundImageFix" result="effect1_dropShadow"/>
<feBlend mode="normal" in="SourceGraphic" in2="effect1_dropShadow" result="shape"/>
</filter>
</defs>
</svg>
